<?xml version="1.0" standalone="no"?>
<!DOCTYPE svg PUBLIC "-//W3C//DTD SVG 20010904//EN"
 "http://www.w3.org/TR/2001/REC-SVG-20010904/DTD/svg10.dtd">
<svg version="1.0" xmlns="http://www.w3.org/2000/svg"
 width="4096.000000pt" height="4096.000000pt" viewBox="0 0 4096.000000 4096.000000"
 preserveAspectRatio="xMidYMid meet">

<g transform="translate(0.000000,4096.000000) scale(0.100000,-0.100000)"
fill="#000000" stroke="none">
<path d="M19640 40460 c-3684 -164 -7162 -1286 -10211 -3296 -746 -491 -1609
-1152 -2219 -1699 -31 -27 -88 -78 -127 -113 -38 -34 -84 -75 -100 -90 -16
-15 -83 -76 -149 -137 -269 -249 -754 -732 -985 -980 -41 -45 -103 -112 -139
-151 -36 -38 -96 -105 -135 -148 -38 -43 -79 -88 -90 -101 -83 -92 -170 -193
-320 -371 -54 -66 -102 -121 -105 -124 -13 -10 -271 -332 -406 -505 -677 -870
-1289 -1809 -1819 -2790 -135 -251 -431 -845 -558 -1120 -1023 -2224 -1628
-4606 -1791 -7050 -74 -1103 -54 -2256 59 -3360 278 -2719 1111 -5361 2437
-7730 476 -851 1052 -1728 1612 -2455 136 -177 541 -679 557 -690 3 -3 35 -39
69 -80 175 -210 532 -605 795 -879 363 -377 672 -676 1109 -1071 22 -19 47
-42 56 -50 9 -8 47 -42 85 -75 39 -33 72 -62 75 -65 3 -4 48 -42 100 -85 52
-44 100 -85 105 -91 31 -35 623 -507 860 -685 857 -645 1718 -1195 2633 -1683
206 -110 730 -372 927 -464 254 -118 283 -131 510 -229 2152 -934 4458 -1485
6785 -1623 559 -33 1700 -38 2205 -10 1378 76 2640 267 3930 595 3141 798
6015 2331 8435 4499 500 448 1157 1107 1575 1581 54 61 112 126 129 145 17 19
58 66 91 105 33 38 66 76 73 83 7 8 74 89 149 180 76 92 144 173 151 181 31
32 390 495 532 686 561 754 1099 1598 1549 2430 133 245 460 903 578 1160
1523 3329 2107 6993 1693 10635 -205 1809 -682 3660 -1368 5321 -583 1411
-1372 2832 -2243 4045 -242 337 -694 928 -794 1038 -6 6 -64 76 -130 156 -65
80 -123 150 -129 155 -6 6 -36 39 -66 75 -30 36 -69 81 -86 100 -261 291 -339
378 -458 505 -237 255 -818 831 -1080 1070 -132 121 -132 121 -216 195 -40 36
-99 88 -130 115 -91 81 -120 106 -220 190 -52 44 -104 88 -115 98 -91 85 -595
483 -890 704 -2106 1575 -4578 2745 -7140 3378 -1252 309 -2411 482 -3795 566
-226 14 -1594 20 -1850 9z m-5965 -12890 c699 -45 1319 -171 1933 -394 794
-289 1600 -765 2237 -1321 931 -813 1650 -1891 2040 -3060 228 -682 336 -1315
352 -2070 30 -1471 -361 -2812 -1179 -4040 -500 -750 -1126 -1381 -1884 -1898
-1057 -721 -2219 -1119 -3494 -1197 -106 -6 -1487 -10 -3842 -10 l-3678 0 0
7000 0 7000 3678 0 c2394 0 3733 -4 3837 -10z m19379 -3486 c-959 -1922 -1744
-3500 -1744 -3505 0 -5 358 -726 796 -1602 438 -875 1223 -2448 1745 -3494
l947 -1903 -6929 0 -6929 0 0 7000 0 7000 6929 0 6929 0 -1744 -3496z"/>
</g>
</svg>
